<?xml version="1.0" encoding="utf-8"?>
<!-- Generator: Adobe Illustrator 26.3.1, SVG Export Plug-In . SVG Version: 6.00 Build 0)  -->
<svg version="1.1" id="Calque_1" xmlns="http://www.w3.org/2000/svg" xmlns:xlink="http://www.w3.org/1999/xlink" x="0px" y="0px"
	 viewBox="0 0 127.2 14.5" style="enable-background:new 0 0 127.2 14.5;" xml:space="preserve">
<style type="text/css">
	.st0{display:none;}
	.st1{display:inline;fill:#FEE5DD;}
	.st2{fill:#FAD8CE;}
</style>
<g id="Calque_3" class="st0">
	<rect y="0" class="st1" width="127.2" height="14.5"/>
</g>
<g id="Calque_2_00000070830989478688412240000009697098787383689638_">
	<g id="Calque_1-2">
		<g>
			<path class="st2" d="M8.8,12l-0.4,2.4H0v-0.1c0.3-0.2,0.5-0.5,0.5-1.2V1.8c0-0.7-0.1-1-0.5-1.2V0.4h2.5v0.2C2.2,0.8,2,1,2,1.8
				v12.5h1.8c2.2,0,3.9-1.1,4.8-2.4L8.8,12z"/>
			<path class="st2" d="M19.5,11.2c-0.1,1.4-1.4,3.3-4.2,3.3s-5.4-1.4-5.5-4.7c-0.1-3.5,3-5,5.2-5.1c1.7-0.1,4,0.7,4.3,3.2h-1.9
				C18.6,8.3,19.7,9.4,19.5,11.2z M16.7,8h-5.2c-0.3,1.1-0.2,2.2,0.1,3.2c0.7,2.1,2.2,3,4.3,2.9c1.7-0.1,3.2-1.3,3.4-2.8
				C19.6,9.2,18.2,8,16.7,8z M11.5,7.8h6.4c-0.3-1.7-1.8-3.1-3.8-2.8C12.8,5.3,11.9,6.4,11.5,7.8z"/>
			<path class="st2" d="M28,6.1l-0.4,1.8h-0.1c-0.6-1.7-1.9-2.9-3-2.9c-1.4,0-2.1,0.8-2.2,1.6c-0.3,2.7,6.5,2,6.2,5.2
				c-0.1,1.6-1.6,2.8-3.8,2.8c-1.6,0-2.8-0.5-3.9-1.3l0.4-2h0.1c0.7,1.4,2.2,3.1,4,3.1c1.4,0,2.5-0.7,2.6-1.6
				c0.4-2.6-6.6-1.5-6.1-5.4c0.2-1.3,0.9-2.5,3.1-2.5C25.8,4.8,27.2,5.5,28,6.1z"/>
			<path class="st2" d="M42.7,2.9L42.7,2.9c-1-1-2.3-2.3-4.5-2.3h-1.7v6.5l4.6-0.4v1l-4.6-0.4v5.8c0,0.7,0.1,1,0.4,1.2v0.1h-2.5
				v-0.1c0.3-0.2,0.4-0.5,0.4-1.2V1.8c0-0.7-0.1-1-0.4-1.2V0.4H42L42.7,2.9z"/>
			<path class="st2" d="M52.6,11.2c-0.1,1.4-1.4,3.3-4.2,3.3s-5.4-1.4-5.5-4.7c-0.1-3.5,3-5,5.2-5.1c1.7-0.1,4,0.7,4.3,3.2h-1.9
				C51.7,8.3,52.8,9.4,52.6,11.2z M49.8,8h-5.2c-0.3,1.1-0.2,2.2,0.1,3.2c0.7,2.1,2.2,3,4.3,2.9c1.7-0.1,3.2-1.3,3.4-2.8
				C52.7,9.2,51.3,8,49.8,8z M44.6,7.8H51c-0.3-1.7-1.8-3.1-3.8-2.8C45.9,5.3,45,6.4,44.6,7.8z"/>
			<path class="st2" d="M61.1,6.1l-0.4,1.8h-0.1C60,6.2,58.7,5,57.6,5c-1.4,0-2.1,0.8-2.2,1.6c-0.3,2.7,6.5,2,6.2,5.2
				c-0.1,1.6-1.6,2.8-3.8,2.8c-1.6,0-2.8-0.5-3.9-1.3l0.4-2h0.1c0.7,1.4,2.2,3.1,4,3.1c1.4,0,2.5-0.7,2.6-1.6
				c0.4-2.6-6.6-1.5-6.1-5.4c0.1-1.4,0.8-2.6,3-2.6C58.9,4.8,60.3,5.5,61.1,6.1z"/>
			<path class="st2" d="M70,10.9c-0.4,1.9-1.2,3.6-3.3,3.6c-1.8,0-2.9-1.2-2.9-3.5V5h-1.2V4.8c1.7,0,1.8-1.8,1.8-2.7H66
				c0,1.5-1.5,2.7-2.7,2.7h4.4V5h-2.4v6.4c0,1.7,0.5,3.1,2.2,2.9c1.3-0.2,2-1.8,2.3-3.3C69.9,10.9,70,10.9,70,10.9z"/>
			<path class="st2" d="M72.7,14.3v0.1h-2.5v-0.1c0.3-0.2,0.4-0.5,0.4-1.2V6.3c0-0.7-0.1-0.9-0.4-1V5.2l1.9-0.4h0.1v8.3
				C72.2,13.8,72.3,14.1,72.7,14.3z M70.4,2.2c0-0.5,0.4-0.9,0.9-0.9s0.9,0.4,0.9,0.9s-0.4,0.9-0.9,0.9S70.4,2.8,70.4,2.2z"/>
			<path class="st2" d="M81,8.7l-1.7,4.2l0.6,1.5h-1.6l-2.5-5.8c-0.8-2-1.3-2.8-2.2-3.6V4.8h3.1V5c-0.5,0.5-0.3,1.1,0.1,2.2l2.4,5.6
				l1.6-4.1c0.7-1.8,1-2.9,0.1-3.7V4.8h2.4V5C82.4,5.8,81.7,6.8,81,8.7z"/>
			<path class="st2" d="M91.8,14.4h-2v-2.8c-0.5,1.8-1.6,2.9-3.5,2.9c-1.6,0-3.2-0.8-3.5-2.2c-0.3-2,0.9-3.2,2.4-3.9
				c-0.5-1.2,0.1-3.6,2.8-3.6c1.7,0,3.4,0.9,3.4,3.3v5c0,0.7,0.1,1,0.4,1.2C91.8,14.3,91.8,14.4,91.8,14.4z M89.8,11.3V8.2
				c-0.1,0-0.6-0.2-1.2-0.2c-2.2,0-5.1,1.1-4.3,4.6c0.3,1.1,1.4,1.7,2.4,1.7C88.5,14.2,89.4,12.7,89.8,11.3z M85.4,8.4
				c1.1-0.4,2.3-0.5,3.2-0.5c0.5,0,0.9,0.1,1.2,0.2V7.9c0-1.5-0.6-2.9-2-2.9C86,5,84.8,6.7,85.4,8.4z"/>
			<path class="st2" d="M95.7,14.3v0.1h-2.5v-0.1c0.3-0.2,0.4-0.5,0.4-1.2V1.5c0-0.7-0.1-0.9-0.4-1V0.4L95.1,0h0.1v13.1
				C95.2,13.8,95.4,14.1,95.7,14.3z"/>
			<path class="st2" d="M99.6,14.3v0.1h-2.5v-0.1c0.3-0.2,0.4-0.5,0.4-1.2V6.3c0-0.7-0.1-0.9-0.4-1V5.2L99,4.8h0.1v8.3
				C99.1,13.8,99.2,14.1,99.6,14.3z M97.3,2.2c0-0.5,0.4-0.9,0.9-0.9s0.9,0.4,0.9,0.9s-0.4,0.9-0.9,0.9S97.3,2.8,97.3,2.2z"/>
			<path class="st2" d="M110.7,11.2c-0.1,1.4-1.4,3.3-4.2,3.3s-5.4-1.4-5.5-4.7c-0.1-3.5,3-5,5.2-5.1c1.7-0.1,4,0.7,4.3,3.2h-1.9
				C109.8,8.3,110.9,9.4,110.7,11.2z M107.9,8h-5.2c-0.3,1.1-0.2,2.2,0.1,3.2c0.7,2.1,2.2,3,4.3,2.9c1.7-0.1,3.2-1.3,3.4-2.8
				C110.8,9.2,109.4,8,107.9,8z M102.7,7.8h6.4c-0.3-1.7-1.8-3.1-3.8-2.8C104,5.3,103.1,6.4,102.7,7.8z"/>
			<path class="st2" d="M119.4,6l-1.2,1.7l-0.1-0.1c0-1.1-0.6-2.6-1.7-2.5c-2,0.3-2.2,5.5-2.2,7.2v0.8c0,0.7,0.1,1,0.4,1.2v0.1h-2.5
				v-0.1c0.3-0.2,0.5-0.5,0.5-1.2V6.3c0-0.7-0.1-0.9-0.5-1V5.2l1.9-0.4h0.2v5.4c0.2-2.4,0.8-5.4,2.9-5.4
				C118.1,4.8,118.7,5.2,119.4,6z"/>
			<path class="st2" d="M126.7,6.1l-0.4,1.8h-0.1c-0.6-1.7-1.9-2.9-3-2.9c-1.4,0-2.1,0.8-2.2,1.6c-0.3,2.7,6.5,2,6.2,5.2
				c-0.1,1.6-1.6,2.8-3.8,2.8c-1.6,0-2.8-0.5-3.9-1.3l0.4-2h0.1c0.7,1.4,2.2,3.1,4,3.1c1.4,0,2.5-0.7,2.6-1.6
				c0.4-2.6-6.6-1.5-6.1-5.4c0.2-1.3,0.9-2.5,3.1-2.5C124.5,4.8,125.9,5.5,126.7,6.1L126.7,6.1z"/>
		</g>
	</g>
</g>
</svg>
